HIERARCHY
ROOT Hips
{
  OFFSET 0.000000 0.000000 0.000000
  CHANNELS 6 Xposition Yposition Zposition Xrotation Yrotation Zrotation
  JOINT Spine
  {
    OFFSET 0.762862 23.197727 -6.058858
    CHANNELS 3 Xrotation Yrotation Zrotation
    JOINT Chest
    {
      OFFSET 0.762862 23.197727 -6.058858
      CHANNELS 3 Xrotation Yrotation Zrotation
      JOINT Neck
      {
        OFFSET -0.270074 9.229822 -3.797407
        CHANNELS 3 Xrotation Yrotation Zrotation
        JOINT Head
        {
          OFFSET 0.225285 8.430608 -7.939136
          CHANNELS 3 Xrotation Yrotation Zrotation
          End Site
          {
            OFFSET 0.067585 2.529182 -2.381741
          }
        }
      }
      JOINT LeftShoulder
      {
        OFFSET 17.595006 0.044015 0.996102
        CHANNELS 3 Xrotation Yrotation Zrotation
        JOINT LeftArm
        {
          OFFSET 3.473531 -23.049457 3.982832
          CHANNELS 3 Xrotation Yrotation Zrotation
          JOINT LeftForeArm
          {
            OFFSET 3.218371 -22.980839 -10.241008
            CHANNELS 3 Xrotation Yrotation Zrotation
            JOINT LeftHand
            {
              OFFSET -0.008887 -5.924601 -2.989147
              CHANNELS 3 Xrotation Yrotation Zrotation
              End Site
              {
                OFFSET -0.002666 -1.777380 -0.896744
              }
            }
          }
        }
      }
      JOINT RightShoulder
      {
        OFFSET -17.595006 -0.044015 -0.996102
        CHANNELS 3 Xrotation Yrotation Zrotation
        JOINT RightArm
        {
          OFFSET -5.553442 -24.118242 6.751946
          CHANNELS 3 Xrotation Yrotation Zrotation
          JOINT RightForeArm
          {
            OFFSET -3.099014 -24.977112 -8.059516
            CHANNELS 3 Xrotation Yrotation Zrotation
            JOINT RightHand
            {
              OFFSET 0.298828 -5.701374 -2.573080
              CHANNELS 3 Xrotation Yrotation Zrotation
              End Site
              {
                OFFSET 0.089648 -1.710412 -0.771924
              }
            }
          }
        }
      }
    }
  }
  JOINT LeftUpLeg
  {
    OFFSET 11.990773 -0.614304 0.788698
    CHANNELS 3 Xrotation Yrotation Zrotation
    JOINT LeftLeg
    {
      OFFSET -5.144974 -41.347031 -0.530598
      CHANNELS 3 Xrotation Yrotation Zrotation
      JOINT LeftFoot
      {
        OFFSET 2.709190 -35.138144 18.775504
        CHANNELS 3 Xrotation Yrotation Zrotation
        End Site
        {
          OFFSET 0.812757 -10.541443 5.632651
        }
      }
    }
  }
  JOINT RightUpLeg
  {
    OFFSET -11.990773 0.614304 -0.788698
    CHANNELS 3 Xrotation Yrotation Zrotation
    JOINT RightLeg
    {
      OFFSET 0.284998 -37.357294 5.081156
      CHANNELS 3 Xrotation Yrotation Zrotation
      JOINT RightFoot
      {
        OFFSET 4.690763 -28.563407 28.545631
        CHANNELS 3 Xrotation Yrotation Zrotation
        End Site
        {
          OFFSET 1.407229 -8.569022 8.563689
        }
      }
    }
  }
}
MOTION
Frames: 6
Frame Time: 0.083333
-8.559344 60.000000 -10.585336 5.463662 -0.035218 0.564097 5.463662 -0.035218 0.564097 170.847088 -0.134943 -9.945117 -17.562842 0.130857 -0.322700 118.009343 1.817603 17.817864 5.864108 1.563020 5.985908 1.501015 0.610496 -1.183301 -114.147208 18.148075 27.640281 0.000000 0.000000 0.000000 6.954378 -1.171128 1.939772 1.407563 -0.132882 0.290462 -110.279005 -21.174301 -26.907635 0.000000 0.000000 0.000000 -0.529571 0.069639 0.469504 0.629309 1.146319 2.084032 0.000000 0.000000 0.000000 5.141873 0.154586 1.428965 26.203827 3.125607 -0.693431 0.000000 0.000000 0.000000
-9.368808 60.000000 -11.865411 10.184637 -0.377007 -0.299579 10.184637 -0.377007 -0.299579 175.604780 -0.637006 -32.502161 -16.948317 0.734138 0.131046 119.034582 1.476095 17.756713 8.776225 2.028029 7.972145 7.662085 1.132479 -1.674865 -112.832344 12.406614 19.609456 0.000000 0.000000 0.000000 6.020081 -1.263022 0.464695 2.242371 -0.149353 0.270199 -109.708415 -21.204584 -27.269453 0.000000 0.000000 0.000000 2.899625 -0.359133 -0.010737 0.925287 1.431702 2.604770 0.000000 0.000000 0.000000 11.681744 0.145583 1.720940 27.549710 2.784234 -1.460812 0.000000 0.000000 0.000000
-10.089308 60.000000 -12.827060 11.694902 -0.436223 -0.381988 11.694902 -0.436223 -0.381988 177.118763 -0.638074 -50.188870 -15.586502 0.703767 0.157585 120.839377 2.044656 31.532582 11.299942 2.334247 9.518395 13.258857 1.642691 -2.050621 -112.113583 10.429093 16.757186 0.000000 0.000000 0.000000 6.373689 -1.500292 -0.257452 2.947985 -0.176800 0.292192 -109.922852 -21.620849 -27.763064 0.000000 0.000000 0.000000 4.028275 -0.473999 -0.490584 1.725551 1.417602 2.543119 0.000000 0.000000 0.000000 12.891335 0.127945 1.364890 20.444372 1.239248 -2.395617 0.000000 0.000000 0.000000
-10.654293 60.000000 -13.337856 12.647801 -0.384939 0.157155 12.647801 -0.384939 0.157155 178.088894 -0.970188 -84.430518 -13.958719 0.683182 0.187986 122.587990 2.784375 52.046438 13.714464 2.534367 10.463301 18.843868 2.101774 -2.263305 -112.544368 9.755905 15.563568 0.000000 0.000000 0.000000 6.697673 -1.728160 -0.967745 3.491634 -0.213534 0.352554 -102.008949 -21.031809 -26.864913 0.000000 0.000000 0.000000 5.165655 -0.560140 -1.370752 -0.733934 0.712387 1.565787 0.000000 0.000000 0.000000 13.059616 0.111852 0.536243 12.900752 0.028107 -2.637042 0.000000 0.000000 0.000000
-11.098777 60.000000 -13.112865 13.068501 -0.251893 1.178000 13.068501 -0.251893 1.178000 178.455034 -0.354222 -38.392680 -13.695681 -0.144973 -0.451379 123.062283 4.629572 80.276303 15.326797 2.649287 11.105559 19.055919 2.297353 -2.529956 -116.648972 9.934780 14.635562 0.000000 0.000000 0.000000 6.263974 -1.698360 -1.258729 3.321905 -0.257206 0.487613 -64.076130 -13.353868 -16.766769 0.000000 0.000000 0.000000 5.785360 -0.583777 -2.142206 -5.099131 -0.450787 -0.075156 0.000000 0.000000 0.000000 13.779474 0.105133 0.077127 0.000000 0.000000 0.000000 0.000000 0.000000 0.000000
-11.816313 60.000000 -12.058582 13.013519 -0.145812 1.893322 13.013519 -0.145812 1.893322 178.384709 0.269204 29.611208 -13.719040 -0.481014 -0.715956 122.994629 5.247184 84.255399 14.997893 2.631784 11.138785 17.586304 2.245252 -2.590978 -121.763860 10.733347 14.376123 0.000000 0.000000 0.000000 7.567271 -1.906058 -0.904457 3.810092 -0.314207 0.604429 -8.417648 -1.961150 -2.653436 0.000000 0.000000 0.000000 5.786234 -0.602925 -1.843542 -2.747427 -0.116342 0.183347 0.000000 0.000000 0.000000 13.362370 0.099727 -0.086129 0.000000 0.000000 0.000000 0.000000 0.000000 0.000000
